#!OML:ASF C:\ViconDB\ViconDB\414\Spring2016\041811\Spring2016.ASF
:FULLY-SPECIFIED
:DEGREES
339
root 10.3083 17.3889 -3.31743 -57.6181 55.8604 157.17
lowerback 20.9935 1.68395 14.7366
upperback 1.30981 6.93407 7.45708
thorax -9.64564 2.89482 -1.94595
lowerneck -23.0359 -3.48986 -10.8053
upperneck 22.62 -6.52123 21.4172
head 12.5843 -1.26404 9.16786
rclavicle -1.52667e-013 -3.49861e-014
rhumerus 61.5265 -33.2173 -32.2293
rradius 38.5392
rwrist 18.9811
rhand -65.6167 -78.6328
rfingers 7.12502
rthumb -37.4808 104.571
lclavicle -3.33958e-014 -5.28767e-014
lhumerus 49.1606 30.8092 12.586
lradius 39.0367
lwrist -4.95505
lhand -59.6535 67.76
lfingers 7.12502
lthumb -31.8219 -95.0015
rfemur 218.256 52.7897 -164.633
rtibia 52.6394
rfoot 30.1355 -59.5276
rtoes -5.23564
lfemur -0.85214 -0.058656 -14.729
ltibia 27.9101
lfoot 41.48 5.78152
ltoes -0.355429
340
root 10.3773 17.4072 -3.63943 -54.3663 53.2843 163.234
lowerback 25.5474 2.29105 16.7952
upperback 1.74737 9.18049 7.22625
thorax -11.0007 3.67523 -4.22488
lowerneck -22.7586 -3.19776 -10.3849
upperneck 23.1614 -6.34412 21.541
head 12.6975 -1.14155 9.2165
rclavicle -1.52667e-013 -3.49861e-014
rhumerus 61.5265 -33.2173 -32.2293
rradius 38.5392
rwrist 18.9811
rhand -65.6167 -78.6328
rfingers 7.12502
rthumb -37.4808 104.571
lclavicle -3.33958e-014 -5.28767e-014
lhumerus 49.1606 30.8092 12.586
lradius 39.0367
lwrist -4.95505
lhand -59.6535 67.76
lfingers 7.12502
lthumb -31.8219 -95.0015
rfemur 212.429 50.199 -165.161
rtibia 54.5378
rfoot 30.9901 -60.3945
rtoes -5.93449
lfemur 0.13167 1.95327 -13.0672
ltibia 28.8475
lfoot 41.48 5.78152
ltoes -0.355429
341
root 10.4007 17.4572 -3.94644 -51.8472 53.4424 166.311
lowerback 26.8878 2.48186 18.054
upperback 1.35164 10.0032 6.55375
thorax -10.8851 3.92633 -5.65696
lowerneck -22.4255 -2.98832 -10.0709
upperneck 23.585 -6.19266 21.4602
head 12.7482 -1.06823 9.17587
rclavicle -1.52667e-013 -3.49861e-014
rhumerus 61.5265 -33.2173 -32.2293
rradius 38.5392
rwrist 18.9811
rhand -65.6167 -78.6328
rfingers 7.12502
rthumb -37.4808 104.571
lclavicle -3.33958e-014 -5.28767e-014
lhumerus 49.1606 30.8092 12.586
lradius 39.0367
lwrist -4.95505
lhand -59.6535 67.76
lfingers 7.12502
lthumb -31.8219 -95.0015
rfemur 210.011 51.349 -164.69
rtibia 56.2652
rfoot 32.5073 -60.8711
rtoes -5.23218
lfemur -1.55839 1.92238 -12.8415
ltibia 29.8424
lfoot 41.48 5.78152
ltoes -0.355429
342
root 10.4341 17.5037 -4.24117 -49.9879 53.3642 168.977
lowerback 28.2783 2.59177 19.2642
upperback 1.52258 10.7378 6.2138
thorax -10.8925 4.16504 -6.86009
lowerneck -22.0892 -2.81675 -9.95503
upperneck 23.8981 -6.03596 21.4625
head 12.7639 -1.00504 9.20024
rclavicle -1.52667e-013 -3.49861e-014
rhumerus 61.5265 -33.2173 -32.2293
rradius 38.5392
rwrist 18.9811
rhand -65.6167 -78.6328
rfingers 7.12502
rthumb -37.4808 104.571
lclavicle -3.33958e-014 -5.28767e-014
lhumerus 49.1606 30.8092 12.586
lradius 39.0367
lwrist -4.95505
lhand -59.6535 67.76
lfingers 7.12502
lthumb -31.8219 -95.0015
rfemur 207.257 52.5025 -164.333
rtibia 57.7943
rfoot 33.6391 -61.229
rtoes -4.14234
lfemur -2.95114 1.35876 -12.0949
ltibia 30.6764
lfoot 41.48 5.78152
ltoes -0.355429
343
root 10.4741 17.5584 -4.5286 -47.6336 53.3754 171.938
lowerback 29.5828 2.73219 20.0086
upperback 1.64995 11.3455 5.80679
thorax -10.9646 4.35538 -7.88238
lowerneck -21.9701 -2.62822 -9.77015
upperneck 24.2969 -5.87062 21.4301
head 12.8551 -0.923054 9.21314
rclavicle -1.52667e-013 -3.49861e-014
rhumerus 61.5265 -33.2173 -32.2293
rradius 38.5392
rwrist 18.9811
rhand -65.6167 -78.6328
rfingers 7.12502
rthumb -37.4808 104.571
lclavicle -3.33958e-014 -5.28767e-014
lhumerus 49.1606 30.8092 12.586
lradius 39.0367
lwrist -4.95505
lhand -59.6535 67.76
lfingers 7.12502
lthumb -31.8219 -95.0015
rfemur 205.678 53.7325 -163.418
rtibia 59.0837
rfoot 34.1369 -61.6139
rtoes -2.79523
lfemur -4.97237 0.723778 -11.4553
ltibia 31.9055
lfoot 41.48 5.78152
ltoes -0.355429
344
root 10.5185 17.618 -4.8059 -45.229 53.4625 174.799
lowerback 30.8041 2.74711 20.7037
upperback 1.73403 11.7352 5.2516
thorax -11.0438 4.44308 -8.97611
lowerneck -21.7152 -2.39474 -9.50173
upperneck 24.4528 -5.67036 21.507
head 12.8174 -0.814564 9.23384
rclavicle -1.52667e-013 -3.49861e-014
rhumerus 61.5265 -33.2173 -32.2293
rradius 38.5392
rwrist 18.9811
rhand -65.6167 -78.6328
rfingers 7.12502
rthumb -37.4808 104.571
lclavicle 4.47266e-014 -3.65764e-014
lhumerus 42.5896 22.323 5.24503
lradius 38.8523
lwrist 1.88798
lhand -59.2595 83.3337
lfingers 7.12502
lthumb -31.4466 -110.649
rfemur 204.698 55.1088 -162.185
rtibia 60.2091
rfoot 34.4708 -62.0645
rtoes -1.62305
lfemur -7.30817 0.00411692 -10.6853
ltibia 33.1496
lfoot 41.48 5.78152
ltoes -0.355429
345
root 10.5661 17.6813 -5.06462 -42.8377 53.4816 177.528
lowerback 32.1257 2.67078 21.2767
upperback 1.71714 12.0066 4.64182
thorax -11.2315 4.4681 -9.96945
lowerneck -21.5558 -2.19091 -9.38056
upperneck 24.5729 -5.49926 21.7714
head 12.8068 -0.709497 9.36243
rclavicle -1.52667e-013 -3.49861e-014
rhumerus 61.5265 -33.2173 -32.2293
rradius 38.5392
rwrist 18.9811
rhand -65.6167 -78.6328
rfingers 7.12502
rthumb -37.4808 104.571
lclavicle 3.06128e-014 -5.68524e-014
lhumerus 42.47 22.2623 5.52326
lradius 38.3571
lwrist 2.19142
lhand -59.1981 84.048
lfingers 7.12502
lthumb -31.3881 -111.375
rfemur 204.757 56.7409 -159.82
rtibia 61.2252
rfoot 34.4386 -62.9651
rtoes 0.002087
lfemur -9.93019 -0.929608 -9.58458
ltibia 34.4505
lfoot 41.48 5.78152
ltoes -0.355429
346
root 10.6064 17.7464 -5.30642 -39.9784 53.7194 180.504
lowerback 33.0671 2.67053 21.3486
upperback 1.70496 12.097 4.0307
thorax -11.4573 4.43067 -10.7706
lowerneck -21.4722 -1.89488 -9.03447
upperneck 24.7828 -5.25314 21.9451
head 12.8225 -0.55308 9.43001
rclavicle -1.52667e-013 -3.49861e-014
rhumerus 61.5265 -33.2173 -32.2293
rradius 38.5392
rwrist 18.9811
rhand -65.6167 -78.6328
rfingers 7.12502
rthumb -37.4808 104.571
lclavicle 1.47101e-014 1.98785e-014
lhumerus 42.0485 22.2223 5.25749
lradius 37.9646
lwrist 2.80595
lhand -59.0923 84.5319
lfingers 7.12502
lthumb -31.2873 -111.878
rfemur 205.43 58.3236 -157.42
rtibia 62.1616
rfoot 35.6584 -63.5584
rtoes 3.08619
lfemur -12.9299 -1.85996 -8.61282
ltibia 35.731
lfoot 41.48 5.78152
ltoes -0.355429
347
root 10.6543 17.8102 -5.53831 -37.2331 53.4625 183.367
lowerback 34.2343 2.64139 21.3914
upperback 1.76817 12.1891 3.47831
thorax -11.6998 4.39179 -11.5124
lowerneck -21.7513 -1.51719 -8.42542
upperneck 25.0126 -4.92641 21.9304
head 12.8942 -0.333862 9.39004
rclavicle -1.52667e-013 -3.49861e-014
rhumerus 61.5265 -33.2173 -32.2293
rradius 38.5392
rwrist 18.9811
rhand -65.6167 -78.6328
rfingers 7.12502
rthumb -37.4808 104.571
lclavicle -1.71352e-013 -1.19271e-014
lhumerus 41.108 22.2956 4.21098
lradius 37.7627
lwrist 3.77955
lhand -58.9588 84.9305
lfingers 7.12502
lthumb -31.1601 -112.301
rfemur 206.006 59.4813 -154.744
rtibia 63.1226
rfoot 38.2237 -63.9873
rtoes 8.01432
lfemur -16.2422 -2.49958 -7.06823
ltibia 37.8007
lfoot 41.48 5.78152
ltoes -0.355429
348
root 10.6996 17.8663 -5.76456 -34.0209 53.2422 186.542
lowerback 35.0789 2.69502 21.008
upperback 1.89096 12.1054 2.86022
thorax -11.8572 4.31546 -12.0571
lowerneck -22.1405 -1.06918 -7.76533
upperneck 25.2438 -4.52961 21.983
head 12.9823 -0.064653 9.38768
rclavicle -1.52667e-013 -3.49861e-014
rhumerus 61.5265 -33.2173 -32.2293
rradius 38.5392
rwrist 18.9811
rhand -65.6167 -78.6328
rfingers 7.12502
rthumb -37.4808 104.571
lclavicle -1.00983e-013 4.21423e-014
lhumerus 39.9789 22.5552 2.95997
lradius 37.6131
lwrist 4.77086
lhand -58.8458 85.2585
lfingers 7.12502
lthumb -31.0524 -112.65
rfemur 207.212 60.5835 -151.744
rtibia 64.1495
rfoot 39.0981 -64.8959
rtoes 10.1512
lfemur -19.6333 -3.15029 -5.57199
ltibia 39.6487
lfoot 41.48 5.78152
ltoes -0.355429
349
root 10.7204 18.0444 -5.97278 -26.2057 53.473 188.372
lowerback 28.9809 4.21107 19.3246
upperback 1.21215 12.1437 2.52406
thorax -10.3718 4.69083 -11.2453
lowerneck -22.3929 -0.501221 -6.94678
upperneck 25.4401 -4.0109 22.0423
head 13.0042 0.269237 9.36731
rclavicle -1.52667e-013 -3.49861e-014
rhumerus 61.5265 -33.2173 -32.2293
rradius 38.5392
rwrist 18.9811
rhand -65.6167 -78.6328
rfingers 7.12502
rthumb -37.4808 104.571
lclavicle -3.18055e-014 3.10104e-014
lhumerus 38.7188 22.8375 1.55251
lradius 37.5448
lwrist 5.85873
lhand -58.8055 85.6928
lfingers 7.12502
lthumb -31.014 -113.092
rfemur 219.012 59.6108 -140.215
rtibia 65.3789
rfoot 43.0669 -65.7453
rtoes 12.1254
lfemur -30.2715 -2.60756 -2.82433
ltibia 41.9354
lfoot 41.48 5.78152
ltoes -0.355429
350
root 10.7608 18.0976 -6.18952 -22.924 52.9843 191.333
lowerback 29.4879 4.26123 18.7735
upperback 1.22576 11.9946 1.97899
thorax -10.6161 4.58775 -11.5995
lowerneck -22.422 -0.0139382 -6.27479
upperneck 25.7869 -3.575 22.0582
head 13.0596 0.534301 9.3502
rclavicle -1.52667e-013 -3.49861e-014
rhumerus 61.5265 -33.2173 -32.2293
rradius 38.5392
rwrist 18.9811
rhand -65.6167 -78.6328
rfingers 7.12502
rthumb -37.4808 104.571
lclavicle 1.59028e-015 2.70347e-014
lhumerus 37.4365 23.2593 0.652129
lradius 37.4507
lwrist 6.45689
lhand -58.8123 85.5693
lfingers 7.12502
lthumb -31.0205 -112.967
rfemur 219.592 59.8738 -137.702
rtibia 66.6207
rfoot 44.8634 -66.4137
rtoes 13.9946
lfemur -33.6383 -2.73549 -0.652669
ltibia 43.4229
lfoot 41.48 5.78152
ltoes -0.355429
351
root 10.8 18.1467 -6.40868 -19.8837 52.4677 193.897
lowerback 29.6528 4.22398 18.4407
upperback 1.28548 11.7304 1.44083
thorax -10.6474 4.46088 -11.9719
lowerneck -22.4571 0.532847 -5.53545
upperneck 26.1631 -3.05968 22.0013
head 13.1138 0.834338 9.3032
rclavicle -1.52667e-013 -3.49861e-014
rhumerus 61.5265 -33.2173 -32.2293
rradius 38.5392
rwrist 18.9811
rhand -65.6167 -78.6328
rfingers 7.12502
rthumb -37.4808 104.571
lclavicle -1.07344e-013 -3.18055e-014
lhumerus 36.3986 23.9781 -0.0538215
lradius 37.1269
lwrist 6.95094
lhand -58.8811 85.4022
lfingers 7.12502
lthumb -31.086 -112.787
rfemur 219.785 60.2047 -135.498
rtibia 67.8412
rfoot 47.543 -66.6929
rtoes 16.6462
lfemur -36.9569 -2.70416 1.80423
ltibia 44.6502
lfoot 41.48 5.78152
ltoes -0.355429
